<svg width="32" height="32" viewBox="0 0 32 32" fill="none" xmlns="http://www.w3.org/2000/svg">
<path d="M12 16C12 13.7908 13.7908 12 16 12C18.2092 12 20 13.7908 20 16C20 18.2092 18.2092 20 16 20C13.7908 20 12 18.2092 12 16Z" fill="#97A9FF"/>
<path opacity="0.4" fill-rule="evenodd" clip-rule="evenodd" d="M10.9428 9.72377C11.4635 10.2445 11.4635 11.0887 10.9428 11.6094C9.9161 12.6361 9.33332 14.2646 9.33332 15.9999C9.33332 17.7353 9.9161 19.3638 10.9428 20.3905C11.4635 20.9111 11.4635 21.7554 10.9428 22.2761C10.4221 22.7967 9.57788 22.7967 9.05718 22.2761C7.41722 20.6361 6.66666 18.2646 6.66666 15.9999C6.66666 13.7353 7.41722 11.3637 9.05718 9.72377C9.57788 9.20308 10.4221 9.20308 10.9428 9.72377Z" fill="#97A9FF"/>
<path opacity="0.4" fill-rule="evenodd" clip-rule="evenodd" d="M6.94282 7.05727C7.46352 7.57797 7.46352 8.42219 6.94282 8.94289C5.16541 10.7203 4.00001 13.0574 4.00001 16.0001C4.00001 18.9427 5.16541 21.2798 6.94282 23.0573C7.46352 23.5779 7.46352 24.4222 6.94282 24.9429C6.42212 25.4635 5.5779 25.4635 5.0572 24.9429C2.83461 22.7203 1.33334 19.7241 1.33334 16.0001C1.33334 12.2761 2.83461 9.27987 5.0572 7.05727C5.5779 6.53657 6.42212 6.53657 6.94282 7.05727Z" fill="#97A9FF"/>
<path opacity="0.4" fill-rule="evenodd" clip-rule="evenodd" d="M21.0572 9.72377C21.5779 9.20308 22.4221 9.20308 22.9428 9.72377C24.5828 11.3637 25.3333 13.7353 25.3333 15.9999C25.3333 18.2646 24.5828 20.6361 22.9428 22.2761C22.4221 22.7967 21.5779 22.7967 21.0572 22.2761C20.5365 21.7554 20.5365 20.9111 21.0572 20.3905C22.0839 19.3638 22.6667 17.7353 22.6667 15.9999C22.6667 14.2646 22.0839 12.6361 21.0572 11.6094C20.5365 11.0887 20.5365 10.2445 21.0572 9.72377Z" fill="#97A9FF"/>
<path opacity="0.4" fill-rule="evenodd" clip-rule="evenodd" d="M25.0572 7.05727C25.5779 6.53657 26.4221 6.53657 26.9428 7.05727C29.1655 9.27987 30.6667 12.2761 30.6667 16.0001C30.6667 19.7241 29.1655 22.7203 26.9428 24.9429C26.4221 25.4635 25.5779 25.4635 25.0572 24.9429C24.5365 24.4222 24.5365 23.5779 25.0572 23.0573C26.8345 21.2798 28 18.9427 28 16.0001C28 13.0574 26.8347 10.7203 25.0572 8.94289C24.5365 8.42219 24.5365 7.57797 25.0572 7.05727Z" fill="#97A9FF"/>
</svg>
